name Walk8.mot
datacolumns 19
datarows 12
range 2.28000000 2.33500000
endheader

                time	   L_ground_force_vx	   L_ground_force_vy	   L_ground_force_vz	   L_ground_force_px	   L_ground_force_py	   L_ground_force_pz	   R_ground_force_vx	   R_ground_force_vy	   R_ground_force_vz	   R_ground_force_px	   R_ground_force_py	   R_ground_force_pz	   L_ground_torque_x	   L_ground_torque_y	   L_ground_torque_z	   R_ground_torque_x	   R_ground_torque_y	   R_ground_torque_z	
          2.28000000	         -0.00000000	         -0.00000001	          0.00000000	          0.00000000	          0.00000000	          0.00000000	         53.98080155	        176.28389334	          9.15537042	          0.43779510	          0.00000000	          0.08321799	          0.00000000	         -0.00000000	          0.00000000	          0.00000000	         -0.02420152	          0.00000000	
          2.28500000	         -0.00000000	         -0.00000001	          0.00000000	          0.00000000	          0.00000000	          0.00000000	         45.62592454	        144.52372915	          8.12722118	          0.42422684	          0.00000000	          0.08040344	          0.00000000	         -0.00000000	          0.00000000	          0.00000000	         -0.00673434	          0.00000000	
          2.29000000	         -0.00000000	         -0.00000000	         -0.00000000	          0.00000000	          0.00000000	          0.00000000	         37.63517139	        115.51248413	          6.92253153	          0.40429976	          0.00000000	          0.07640792	          0.00000000	         -0.00000000	          0.00000000	          0.00000000	          0.00511194	          0.00000000	
          2.29500000	         -0.00000000	         -0.00000000	         -0.00000000	          0.00000000	          0.00000000	          0.00000000	         30.17758903	         89.55068739	          5.64412930	          0.37721939	          0.00000000	          0.07108413	          0.00000000	         -0.00000000	          0.00000000	          0.00000000	          0.01259838	          0.00000000	
          2.30000000	          0.00000000	         -0.00000000	         -0.00000000	          0.00000000	          0.00000000	          0.00000000	         23.38922892	         66.84086853	          4.38811794	          0.34264712	          0.00000000	          0.06437241	          0.00000000	         -0.00000000	          0.00000000	          0.00000000	          0.01691818	          0.00000000	
          2.30500000	          0.00000000	          0.00000000	         -0.00000000	          0.00000000	          0.00000000	          0.00000000	         17.37356164	         47.48480374	          3.23283552	          0.30099147	          0.00000000	          0.05636334	          0.00000000	         -0.00000000	          0.00000000	          0.00000000	          0.01871532	          0.00000000	
          2.31000000	          0.00000000	          0.00000000	         -0.00000000	          0.00000000	          0.00000000	          0.00000000	         12.20600839	         31.48548107	          2.23243100	          0.25377421	          0.00000000	          0.04735930	          0.00000000	         -0.00000000	          0.00000000	          0.00000000	          0.01854282	          0.00000000	
          2.31500000	          0.00000000	          0.00000000	         -0.00000000	          0.00000000	          0.00000000	          0.00000000	          7.93624664	         18.76037637	          1.41340557	          0.20405838	          0.00000000	          0.03794992	          0.00000000	         -0.00000000	          0.00000000	          0.00000000	          0.01700041	          0.00000000	
          2.32000000	          0.00000000	          0.00000000	         -0.00000000	          0.00000000	          0.00000000	          0.00000000	          4.57060933	          9.11666832	          0.77638043	          0.15605025	          0.00000000	          0.02891655	          0.00000000	         -0.00000000	          0.00000000	          0.00000000	          0.01466763	          0.00000000	
          2.32500000	          0.00000000	          0.00000000	         -0.00000000	         -0.00000000	          0.00000000	         -0.00000000	          2.05081138	          2.21132693	          0.30646624	          0.11292187	          0.00000000	          0.02083668	          0.00000000	         -0.00000000	          0.00000000	          0.00000000	          0.01201164	          0.00000000	
          2.33000000	          0.00000000	          0.00000000	         -0.00000000	         -0.00000000	          0.00000000	         -0.00000000	          0.27271939	         -2.39182395	         -0.01911840	          0.07633373	          0.00000000	          0.01400728	          0.00000000	         -0.00000000	          0.00000000	          0.00000000	          0.00935842	          0.00000000	
          2.33500000	          0.00000000	          0.00000000	         -0.00000000	         -0.00000000	          0.00000000	         -0.00000000	         -0.88910536	         -5.15457109	         -0.22639749	          0.04683339	          0.00000000	          0.00851992	          0.00000000	         -0.00000000	          0.00000000	          0.00000000	          0.00691683	          0.00000000	
